<svg width="111" height="14" viewBox="0 0 111 14" fill="none" xmlns="http://www.w3.org/2000/svg">
<path d="M7.70282 0.74593C9.9709 0.74593 11.8226 1.72027 13.0233 3.49915L10.7754 5.41144C9.9709 4.28751 8.99656 3.70533 7.64622 3.70533C5.56815 3.70533 4.27441 5.07183 4.27441 7.15393C4.27441 9.27241 5.64092 10.6955 7.83623 10.6955C9.01677 10.6955 9.95473 10.2831 10.5531 9.5918V9.00962H7.66643V6.23619H13.7753V10.1335C13.1931 11.1645 12.3684 11.9892 11.301 12.624C10.2337 13.2425 9.03294 13.5619 7.70282 13.5619C3.99141 13.6185 0.922821 10.7319 0.975379 7.15393C0.918778 3.59617 3.99141 0.689329 7.70282 0.74593Z" fill="#46A358"/>
<path d="M22.9572 13.332L20.1676 9.4912H18.8374V13.332H15.6152V0.96875H20.4667C23.22 0.96875 25.2455 2.65464 25.2455 5.22189C25.2455 6.73798 24.5137 7.99532 23.2968 8.74326L26.5554 13.332H22.9572ZM18.8334 6.68138H20.4829C21.3804 6.68138 21.9626 6.0992 21.9626 5.22189C21.9626 4.34458 21.3804 3.77857 20.4829 3.77857H18.8334V6.68138Z" fill="#46A358"/>
<path d="M27.832 0.96875H36.4111V3.87156H31.0543V5.57766H34.8748V8.27428H31.0543V10.4292H36.6376V13.332H27.832V0.96875Z" fill="#46A358"/>
<path d="M38.6426 0.96875H47.2216V3.87156H41.8648V5.57766H45.6853V8.27428H41.8648V10.4292H47.448V13.332H38.6426V0.96875Z" fill="#46A358"/>
<path d="M60.4174 0.96859V13.5582H59.3865L52.6792 7.0572V13.3318H49.457V0.742188H50.488L57.1952 7.15019V0.96859H60.4174Z" fill="#46A358"/>
<path d="M64.2632 9.13539C64.995 10.1097 65.7631 10.7283 67.0164 10.7283C67.8614 10.7283 68.2899 10.4291 68.2899 9.82672C68.2899 9.28498 68.0069 9.11517 67.0326 8.68258L65.7591 8.12062C63.7174 7.21905 62.6299 6.05874 62.6299 4.39306C62.6299 2.20181 64.429 0.738281 66.9558 0.738281C68.9974 0.738281 70.4408 1.71262 71.1887 3.22871L69.0338 4.87821C68.4355 3.98069 67.8735 3.56831 66.9922 3.56831C66.317 3.56831 65.8885 3.8311 65.8885 4.35668C65.8885 4.80544 66.1513 5.05206 66.9558 5.3674L68.3789 5.96575C70.5337 6.86732 71.5445 7.95082 71.5445 9.69331C71.5445 12.0907 69.5756 13.5543 67.0083 13.5543C64.7807 13.5543 62.9816 12.487 62.0801 10.7808L64.2632 9.13539Z" fill="#46A358"/>
<path d="M73.3926 0.96875H76.6147V5.48468H81.1305V0.96875H84.3526V13.332H81.1305V8.38748H76.6147V13.332H73.3926V0.96875Z" fill="#46A358"/>
<path d="M92.8414 0.742681C96.4396 0.665866 99.6052 3.6091 99.5284 7.15067C99.6011 10.7286 96.4396 13.6153 92.8414 13.5587C89.2271 13.6153 86.114 10.7286 86.1908 7.15067C86.114 3.6091 89.2271 0.669909 92.8414 0.742681ZM92.8576 3.70208C90.8725 3.70208 89.4858 5.10901 89.4858 7.15067C89.4858 8.18161 89.8052 9.02254 90.4238 9.66131C91.0423 10.2799 91.8671 10.5993 92.8576 10.5993C94.7699 10.5993 96.2294 9.21255 96.2294 7.15067C96.2334 5.10901 94.7699 3.70208 92.8576 3.70208Z" fill="#46A358"/>
<path d="M101.373 0.96875H106.224C108.978 0.96875 111.003 2.65464 111.003 5.22189C111.003 7.75275 108.925 9.4912 106.224 9.4912H104.595V13.332H101.373V0.96875ZM106.241 6.68138C107.138 6.68138 107.72 6.0992 107.72 5.22189C107.72 4.34458 107.138 3.77857 106.241 3.77857H104.591V6.68138H106.241Z" fill="#46A358"/>
</svg>
