<svg width="68" height="87" viewBox="0 0 68 87" fill="none" xmlns="http://www.w3.org/2000/svg">
<g clip-path="url(#clip0_42096_14380)">
<path d="M7.24949 40.7766C24.0222 39.0238 40.9389 41.7144 57.6705 39.29C58.4521 39.1753 58.1189 37.9918 57.3413 38.1064C40.7291 40.5104 23.907 37.8075 7.24949 39.548C6.46783 39.6299 6.4596 40.8585 7.24949 40.7766Z" fill="#727272"/>
<path d="M7.08556 39.5722C5.4482 40.0801 5.6539 42.2096 6.52195 43.3399C7.94538 45.191 11.1419 45.2319 13.2277 45.0353C14.0135 44.9616 14.0176 43.733 13.2277 43.8068C11.8784 43.9337 10.4796 43.9214 9.16724 43.5365C8.48432 43.3358 7.76437 43.0532 7.37354 42.4144C7.17196 42.0827 6.78524 40.9524 7.41468 40.7599C8.17165 40.5224 7.84665 39.3347 7.08556 39.5722Z" fill="#727272"/>
<path d="M54.7831 39.6748C55.6511 39.6216 56.4904 39.4742 57.3543 39.3595C58.7243 39.1752 59.4277 39.5438 59.6664 40.9771C59.8638 42.1689 59.111 42.517 58.0496 42.8528C57.5477 43.0125 57.0211 43.1108 56.5027 43.2132C55.1163 43.4834 53.7258 43.6186 52.3147 43.6677C51.5248 43.6964 51.5207 44.925 52.3147 44.8963C54.7213 44.8103 61.4806 44.7202 61.2173 40.9321C61.1515 39.9861 60.2341 38.6797 59.3743 38.2538C58.0907 37.6149 56.0913 38.3643 54.7789 38.4462C53.9932 38.4954 53.9891 39.724 54.7831 39.6748Z" fill="#727272"/>
<path d="M9.05552 44.7733C8.88684 47.3738 5.92478 48.844 4.35324 50.6296C3.11904 52.0342 2.14814 53.6519 1.44465 55.376C-0.0692937 59.0699 -0.357272 63.2103 0.412042 67.1049C1.99593 75.0947 8.05993 81.6881 15.6338 84.518C16.3784 84.7965 16.6993 83.6088 15.9629 83.3344C8.09696 80.394 1.98358 73.0266 1.30066 64.5781C0.975658 60.5647 1.82725 56.3875 4.0776 53.0089C5.94535 50.2077 10.0552 48.414 10.2897 44.7733C10.3391 43.987 9.10489 43.987 9.05552 44.7733Z" fill="#727272"/>
<path d="M55.8234 44.249C55.8234 47.4802 58.1808 49.5074 60.5792 51.3134C62.6403 52.8614 64.2365 54.3685 65.2527 56.797C66.1372 58.906 66.6267 61.183 66.7378 63.4641C67.141 71.8553 62.2454 79.6445 54.7209 83.3098C54.0092 83.6579 54.6304 84.7186 55.3421 84.3705C62.3318 80.9673 67.2603 74.0504 67.9185 66.3021C68.2518 62.3829 67.5689 58.0665 65.5695 54.6306C63.3685 50.8424 57.0576 49.106 57.0535 44.249C57.0576 43.4587 55.8234 43.4587 55.8234 44.249Z" fill="#727272"/>
<path d="M15.2675 83.617C14.4694 85.3821 15.9011 86.9055 17.6783 86.9874C19.6078 87.0816 21.6442 86.6352 23.5778 86.5533C25.8199 86.455 28.062 86.4509 30.3041 86.4837C38.672 86.6106 47.0357 87.2454 55.3665 86.1151C55.6504 86.0783 55.7943 85.767 55.819 85.5213C55.8848 84.8333 55.8273 84.3255 55.6257 83.6784C55.3912 82.9249 54.2022 83.2484 54.4367 84.006C54.6465 84.5016 54.6959 85.0094 54.5848 85.5213C54.737 85.3247 54.8852 85.1282 55.0374 84.9275C48.5414 85.808 41.9878 85.5868 35.4548 85.3821C32.2871 85.2838 29.1152 85.1937 25.9474 85.2469C24.4993 85.2715 23.0512 85.3288 21.603 85.4271C20.8132 85.4803 20.0274 85.5541 19.2416 85.6319C18.6616 85.6892 15.4444 86.1847 16.3289 84.2272C16.6539 83.5187 15.5925 82.8962 15.2675 83.617Z" fill="#727272"/>
<path d="M7.07985 51.2237C2.05257 57.3789 1.66174 65.9708 6.17478 72.5233C6.39693 72.8468 6.93175 72.5396 6.70959 72.212C2.36112 65.9012 2.66144 57.6042 7.52005 51.6537C7.76277 51.3548 7.33081 50.9166 7.07985 51.2237Z" fill="#727272"/>
<path d="M7.41406 74.8038C7.81723 75.3853 8.278 75.9218 8.79225 76.4092C9.08023 76.6794 9.51631 76.2494 9.22833 75.9751C8.75111 75.5246 8.32325 75.0331 7.94477 74.4967C7.72261 74.1731 7.1878 74.4762 7.41406 74.8038Z" fill="#727272"/>
<path d="M10.8657 78.3384C11.2648 78.3384 11.2648 77.7241 10.8657 77.7241C10.4666 77.7241 10.4666 78.3384 10.8657 78.3384Z" fill="#727272"/>
<path d="M54.6301 44.2822C54.3134 45.4617 54.0419 46.6493 54.5067 47.8287C54.9387 48.9222 55.815 49.9091 56.5596 50.8142C58.3451 52.9765 61.9983 55.1593 62.1711 58.1734C62.1916 58.5666 62.8087 58.5707 62.7882 58.1734C62.6606 55.9169 60.9904 54.4713 59.4517 53.0052C58.4603 52.0592 57.5264 51.0558 56.6707 49.9829C56.0947 49.258 55.4447 48.4922 55.1115 47.6199C54.7042 46.5592 54.9387 45.5149 55.2226 44.4501C55.3254 44.0652 54.7289 43.9014 54.6301 44.2822Z" fill="#727272"/>
<path d="M62.4395 59.5985C62.5259 60.3848 62.6122 61.1711 62.6986 61.9574C62.7398 62.3464 63.361 62.3505 63.3157 61.9574C63.2293 61.1711 63.143 60.3848 63.0566 59.5985C63.0154 59.2095 62.3983 59.2054 62.4395 59.5985Z" fill="#727272"/>
<path d="M62.4961 63.5747C62.5414 63.8041 62.5043 64.0211 62.4179 64.2341C62.3562 64.3897 62.4879 64.5699 62.6319 64.6108C62.8088 64.66 62.9486 64.5494 63.0104 64.3979C63.1379 64.0784 63.1543 63.7467 63.0885 63.4109C63.0186 63.026 62.4221 63.1898 62.4961 63.5747Z" fill="#727272"/>
<path d="M35.7428 59.0823C37.2156 56.2975 39.9884 54.4751 43.2096 54.6348C47.0439 54.8232 51.0756 58.1444 48.3891 62.0677C46.8135 64.3652 43.9831 65.8518 41.8973 67.6619C39.5811 69.6726 37.4624 71.8882 35.5083 74.2553C35.0064 74.8614 35.8744 75.7337 36.3804 75.1235C39.359 71.5155 42.7283 68.4645 46.4309 65.6142C48.9034 63.7058 51.6392 60.8105 50.1376 57.4564C48.8952 54.6798 45.4641 53.3161 42.572 53.398C39.1656 53.4963 36.2447 55.4948 34.6731 58.4598C34.307 59.1601 35.3725 59.7826 35.7428 59.0823Z" fill="#727272"/>
<path d="M35.4499 58.1285C32.8128 55.1758 29.5217 52.133 25.2514 52.3541C22.0836 52.518 19.356 54.9096 18.8994 58.0589C18.3358 61.8961 21.2155 65.2625 24.0213 67.4862C27.4688 70.2177 32.6689 71.1637 35.2483 74.8659C35.6968 75.5129 36.7664 74.8986 36.3138 74.2475C34.7053 71.9378 32.3644 70.7501 29.8796 69.5543C26.72 68.035 23.6058 66.1552 21.5735 63.223C19.3067 59.9591 19.681 54.9669 24.0748 53.7711C28.3739 52.604 31.9942 56.1095 34.5736 58.9967C35.1043 59.5905 35.9765 58.7182 35.4499 58.1285Z" fill="#727272"/>
</g>
<g clip-path="url(#clip1_42096_14380)">
<path d="M31.4715 12.629C30.2826 14.782 28.4684 16.507 26.14 17.4C25.2309 17.7507 24.0338 17.7303 24.1531 16.4866C24.2271 15.7118 25.0663 15.039 25.6752 14.676C26.7119 14.0562 28.0406 13.8523 29.1554 13.3711C29.8795 13.0571 29.2542 12.001 28.5343 12.315C26.5432 13.1754 24.3629 13.3793 23.2316 15.4671C22.6269 16.5844 22.4294 18.1381 23.7911 18.7742C25.2679 19.4634 27.3001 18.3501 28.526 17.5672C30.2291 16.4825 31.5661 15.0022 32.5328 13.2447C32.9195 12.5556 31.8541 11.9357 31.4715 12.629Z" fill="#46A358"/>
<path d="M28.8961 12.1193C27.3987 12.2824 25.9136 12.2905 24.4285 12.0133C23.8855 11.9113 23.3466 11.7727 22.8201 11.6055C22.3758 11.475 21.9479 11.316 21.5242 11.1243C20.8948 10.3332 20.9565 9.89281 21.7176 9.79494C23.9472 8.09042 27.4316 9.88057 29.6201 10.7084C30.3647 10.9897 30.6856 9.80717 29.9492 9.52988C28.0446 8.80811 25.9548 7.72342 23.8608 7.95586C22.6596 8.08634 19.8911 8.60422 19.5702 10.1008C18.8297 13.5669 27.1066 13.5424 28.8961 13.3467C29.6777 13.257 29.6859 12.0336 28.8961 12.1193Z" fill="#46A358"/>
<path d="M30.353 9.5501C28.4812 8.07802 26.8192 5.7863 26.9097 3.30292C26.9509 2.19784 27.6584 1.7289 28.6828 2.22639C29.2463 2.4996 29.6372 3.1969 29.9457 3.72294C30.6615 4.95443 30.9618 6.36127 31.2251 7.74364C31.3732 8.51434 32.5621 8.18812 32.414 7.41742C32.019 5.35405 31.4554 3.20506 29.9169 1.66365C29.0078 0.754304 27.4939 -0.28961 26.4243 0.933727C23.9231 3.79226 27.1977 8.61629 29.4808 10.4146C30.0979 10.8999 30.9782 10.0394 30.353 9.5501Z" fill="#46A358"/>
<path d="M32.3853 7.75612C32.6568 5.79062 33.5207 2.05129 35.7998 1.41515C37.9184 0.827951 37.7086 4.20436 37.1162 5.32168C36.5197 6.44715 35.3473 7.5033 34.4957 8.44527C33.9691 9.02839 34.8371 9.89696 35.3678 9.30976C36.5896 7.95593 38.4161 6.40229 38.6794 4.49796C38.8851 3.0218 38.774 0.791251 37.1326 0.138804C35.6352 -0.456553 34.1543 0.897274 33.3027 1.96158C32.048 3.52745 31.4639 5.46848 31.1923 7.42174C31.0854 8.2006 32.2743 8.53498 32.3853 7.75612Z" fill="#46A358"/>
<path d="M35.4552 9.46495C36.891 8.27424 39.5567 7.44645 41.3092 8.51891C43.58 9.91351 40.363 10.7495 39.3016 10.8188C38.1662 10.8963 37.0308 10.8269 35.9037 10.6964C35.1179 10.6067 35.122 11.8301 35.9037 11.9198C37.7466 12.1318 40.2355 12.405 41.9509 11.4998C43.0164 10.937 43.7815 9.57506 43.1274 8.4292C42.3952 7.14469 40.3342 6.83478 38.9972 6.87148C37.3394 6.92041 35.8461 7.55655 34.5872 8.60046C33.9743 9.10611 34.8505 9.9706 35.4552 9.46495Z" fill="#46A358"/>
<path d="M35.5853 11.8789C36.8565 12.3437 38.1194 13.0451 38.8434 14.2277C39.7485 15.712 39.769 18.4441 37.1362 17.9344C34.8202 17.4858 33.1459 15.0473 32.6728 12.9309C32.5 12.1643 31.3111 12.4864 31.4839 13.2571C31.9035 15.1411 32.9525 16.8048 34.524 17.9588C35.7581 18.8682 37.9261 19.9529 39.3782 18.9212C40.8715 17.861 40.8715 15.6671 40.1969 14.1583C39.3988 12.3804 37.6998 11.3487 35.9227 10.6963C35.1657 10.4272 34.8449 11.6097 35.5853 11.8789Z" fill="#46A358"/>
<path d="M23.1048 15.247C19.5011 17.4001 16.8436 19.7978 16.2142 24.1121C15.5272 28.7975 16.6256 33.6949 17.6294 38.258C17.798 39.0287 18.9869 38.7024 18.8183 37.9317C17.9297 33.8947 17.0205 29.7109 17.2962 25.5556C17.5965 21.0252 19.966 18.55 23.7219 16.3072C24.4048 15.8994 23.7877 14.8392 23.1048 15.247Z" fill="#46A358"/>
<path d="M39.008 13.8647C44.0474 14.2562 47.614 18.2687 48.9674 22.8644C50.4402 27.8679 49.6174 33.1364 48.8152 38.1765C48.6918 38.9472 49.8807 39.2775 50.0041 38.5027C50.9421 32.5899 51.8841 26.3101 49.4611 20.6094C47.6263 16.291 43.817 13.0165 39.008 12.6414C38.214 12.5802 38.2181 13.8035 39.008 13.8647Z" fill="#46A358"/>
<path d="M24.3268 17.7833C18.3001 22.1302 20.2541 31.9577 21.4718 38.0662C21.624 38.8369 22.817 38.5107 22.6607 37.74C22.0231 34.543 21.4307 31.3093 21.4924 28.039C21.5541 24.8583 22.1588 20.8498 24.948 18.8395C25.5856 18.3787 24.9726 17.3184 24.3268 17.7833Z" fill="#46A358"/>
<path d="M31.0931 13.8283C28.8511 17.2495 27.4031 21.0745 26.8765 25.1278C26.6009 27.2524 26.5803 29.4054 26.8354 31.534C27.111 33.8584 27.8638 36.093 28.1435 38.4174C28.234 39.1881 29.4723 39.2003 29.3777 38.4174C28.8922 34.36 27.6417 30.6247 27.9708 26.4735C28.3122 22.1633 29.7932 18.061 32.1627 14.444C32.5905 13.7834 31.5251 13.1718 31.0931 13.8283Z" fill="#46A358"/>
<path d="M34.1098 17.6081C35.9487 20.6175 36.3354 24.0225 36.6562 27.46C36.9894 31.0363 37.261 34.6166 37.4913 38.2009C37.5407 38.9839 38.7748 38.988 38.7255 38.2009C38.4663 34.1435 38.1742 30.0861 37.7546 26.041C37.4255 22.8644 36.8701 19.753 35.1753 16.9883C34.7639 16.3195 33.6943 16.9312 34.1098 17.6081Z" fill="#46A358"/>
<path d="M39.7249 18.1789C44.32 23.9082 44.4722 31.2237 44.3077 38.2049C44.2912 38.9919 45.5254 38.9919 45.5418 38.2049C45.7146 30.8404 45.4184 23.3291 40.5971 17.3144C40.1034 16.6986 39.2354 17.5713 39.7249 18.1789Z" fill="#46A358"/>
<path d="M31.9542 19.6717C31.8842 19.9449 31.8184 20.214 31.7485 20.4873C31.6539 20.8706 32.2462 21.0337 32.345 20.6504C32.4149 20.3772 32.4807 20.108 32.5507 19.8348C32.6453 19.4556 32.0529 19.2925 31.9542 19.6717Z" fill="#46A358"/>
<path d="M33.2871 21.7957C33.2871 22.1015 33.2871 22.4074 33.2871 22.7132C33.2871 23.1087 33.9042 23.1087 33.9042 22.7132C33.9042 22.4074 33.9042 22.1015 33.9042 21.7957C33.9042 21.4001 33.2871 21.4001 33.2871 21.7957Z" fill="#46A358"/>
<path d="M30.3069 23.7331C30.274 24.1735 30.237 24.6179 30.2041 25.0583C30.1753 25.4498 30.7924 25.4498 30.8212 25.0583C30.8541 24.6179 30.8911 24.1735 30.924 23.7331C30.9528 23.3416 30.3357 23.3416 30.3069 23.7331Z" fill="#46A358"/>
<path d="M34.3145 25.8738C34.3145 26.2816 34.3145 26.6894 34.3145 27.0971C34.3145 27.4927 34.9315 27.4927 34.9315 27.0971C34.9315 26.6894 34.9315 26.2816 34.9315 25.8738C34.9315 25.4783 34.3145 25.4783 34.3145 25.8738Z" fill="#46A358"/>
<path d="M31.9492 28.1165C31.9492 28.5569 31.9492 29.0014 31.9492 29.4418C31.9492 29.8373 32.5663 29.8373 32.5663 29.4418C32.5663 29.0014 32.5663 28.5569 32.5663 28.1165C32.5663 27.7209 31.9492 27.7209 31.9492 28.1165Z" fill="#46A358"/>
<path d="M30.6133 32.6023C30.6133 33.214 30.6133 33.8257 30.6133 34.4373C30.6133 34.8329 31.2303 34.8329 31.2303 34.4373C31.2303 33.8257 31.2303 33.214 31.2303 32.6023C31.2303 32.2068 30.6133 32.2068 30.6133 32.6023Z" fill="#46A358"/>
<path d="M28.7811 28.6014C28.851 29.0092 28.9251 29.417 28.995 29.8247C29.0608 30.2121 29.6573 30.049 29.5915 29.6616C29.5216 29.2539 29.4475 28.8461 29.3776 28.4383C29.3076 28.055 28.7111 28.2181 28.7811 28.6014Z" fill="#46A358"/>
<path d="M33.4996 34.6408C33.5325 35.0486 33.5696 35.4564 33.6025 35.8642C33.6354 36.2556 34.2525 36.2556 34.2196 35.8642C34.1866 35.4564 34.1496 35.0486 34.1167 34.6408C34.0838 34.2494 33.4626 34.2453 33.4996 34.6408Z" fill="#46A358"/>
<path d="M35.347 30.0534C35.3799 30.4612 35.4169 30.869 35.4498 31.2768C35.4827 31.6642 36.0998 31.6682 36.0669 31.2768C36.034 30.869 35.9969 30.4612 35.964 30.0534C35.9311 29.662 35.3141 29.6579 35.347 30.0534Z" fill="#46A358"/>
<path d="M42.4306 16.4011C42.9078 16.8129 43.385 17.2248 43.8622 17.6326C44.1625 17.8895 44.5986 17.4572 44.2982 17.2003C43.821 16.7885 43.3439 16.3766 42.8667 15.9688C42.5705 15.7119 42.1303 16.1401 42.4306 16.4011Z" fill="#46A358"/>
<path d="M42.6901 19.806C42.9575 20.2831 43.229 20.7643 43.4964 21.2414C43.6898 21.5839 44.2246 21.2781 44.0312 20.9315C43.7638 20.4544 43.4923 19.9732 43.2249 19.4961C43.0275 19.1536 42.4968 19.4635 42.6901 19.806Z" fill="#46A358"/>
<path d="M45.1636 20.0057C45.4681 20.4176 45.7725 20.8294 46.0769 21.2372C46.3073 21.5512 46.8462 21.2453 46.6117 20.9273C46.3073 20.5154 46.0028 20.1036 45.6984 19.6958C45.4639 19.3859 44.9291 19.6876 45.1636 20.0057Z" fill="#46A358"/>
<path d="M46.6856 25.3395C46.7884 26.0531 46.8954 26.7667 46.9982 27.4803C47.0558 27.8677 47.6482 27.7046 47.5947 27.3172C47.4919 26.6036 47.3849 25.89 47.2821 25.1764C47.2204 24.789 46.628 24.9562 46.6856 25.3395Z" fill="#46A358"/>
<path d="M44.6123 23.5088C44.7152 23.8473 44.818 24.1898 44.9209 24.5283C45.0361 24.9034 45.6284 24.7444 45.5174 24.3652C45.4145 24.0267 45.3117 23.6842 45.2088 23.3457C45.0937 22.9706 44.4972 23.1296 44.6123 23.5088Z" fill="#46A358"/>
<path d="M47.8816 31.1749C47.9268 31.6601 47.9186 32.1454 47.8404 32.6266C47.7787 33.0099 48.3711 33.1771 48.4369 32.7897C48.5233 32.2514 48.5521 31.7172 48.5028 31.1749C48.4616 30.7875 47.8445 30.7834 47.8816 31.1749Z" fill="#46A358"/>
<path d="M46.4512 33.1121C46.4512 33.4872 46.4512 33.8583 46.4512 34.2335C46.4512 34.629 47.0682 34.629 47.0682 34.2335C47.0682 33.8583 47.0682 33.4872 47.0682 33.1121C47.0682 32.7165 46.4512 32.7165 46.4512 33.1121Z" fill="#46A358"/>
<path d="M47.0879 22.8931C47.2565 23.3008 47.4293 23.7086 47.598 24.1164C47.6638 24.2714 47.8037 24.3774 47.9764 24.3284C48.1204 24.2917 48.2562 24.1042 48.1904 23.9533C48.0217 23.5455 47.8489 23.1377 47.6803 22.7299C47.6144 22.575 47.4746 22.469 47.3018 22.5179C47.1578 22.5546 47.0262 22.7422 47.0879 22.8931Z" fill="#46A358"/>
<path d="M45.9355 29.9514C45.9355 30.188 45.9355 30.4285 45.9355 30.6651C45.9355 31.0606 46.5526 31.0606 46.5526 30.6651C46.5526 30.4285 46.5526 30.188 46.5526 29.9514C46.5526 29.5559 45.9355 29.5559 45.9355 29.9514Z" fill="#46A358"/>
<path d="M47.1699 36.7819C47.1534 37.0715 47.0835 37.3488 46.9765 37.6179C46.9148 37.7728 47.0465 37.9523 47.1905 37.993C47.3673 38.042 47.5072 37.9319 47.5689 37.781C47.7006 37.4589 47.7664 37.1286 47.787 36.7819C47.8116 36.3864 47.1946 36.3905 47.1699 36.7819Z" fill="#46A358"/>
<path d="M21.2898 18.8843C21.0799 19.1861 20.8701 19.4879 20.6562 19.7896C20.43 20.1158 20.9648 20.4217 21.191 20.0995C21.4008 19.7978 21.6106 19.496 21.8245 19.1943C22.0467 18.868 21.5119 18.5622 21.2898 18.8843Z" fill="#46A358"/>
<path d="M19.5304 23.3455C19.4523 23.7166 19.3782 24.0877 19.3001 24.4628C19.2219 24.8462 19.8143 25.0133 19.8966 24.626C19.9747 24.2549 20.0488 23.8838 20.1269 23.5086C20.2051 23.1253 19.6086 22.9622 19.5304 23.3455Z" fill="#46A358"/>
<path d="M19.3329 21.123C19.008 21.5512 18.7652 22.0242 18.6007 22.5339C18.4773 22.9091 19.0738 23.0681 19.1972 22.6971C19.3494 22.2363 19.5757 21.8203 19.8677 21.4329C20.1063 21.1149 19.5674 20.8131 19.3329 21.123Z" fill="#46A358"/>
<path d="M18.0778 25.1803C18.0038 25.69 17.9256 26.1957 17.8516 26.7054C17.794 27.0887 18.3905 27.2559 18.4481 26.8685C18.5221 26.3588 18.6003 25.8531 18.6743 25.3434C18.7319 24.956 18.1354 24.7888 18.0778 25.1803Z" fill="#46A358"/>
<path d="M18.6954 28.1163C18.6419 28.626 18.6748 29.1276 18.7736 29.6292C18.8476 30.0165 19.4441 29.8534 19.3701 29.466C19.2837 29.0175 19.2672 28.5689 19.3166 28.1163C19.3495 27.7248 18.7324 27.7289 18.6954 28.1163Z" fill="#46A358"/>
<path d="M19.2003 31.9904C19.2332 32.2962 19.2702 32.6021 19.3032 32.9079C19.3196 33.071 19.4307 33.2137 19.6117 33.2137C19.7639 33.2137 19.9408 33.0751 19.9202 32.9079C19.8873 32.6021 19.8503 32.2962 19.8174 31.9904C19.8009 31.8273 19.6898 31.6846 19.5088 31.6846C19.3566 31.6846 19.1839 31.8232 19.2003 31.9904Z" fill="#46A358"/>
<path d="M18.2008 34.2906C18.4394 34.678 18.6122 35.0857 18.7192 35.5302C18.8138 35.9135 19.4062 35.7504 19.3156 35.3671C19.1964 34.8778 18.9989 34.4129 18.7356 33.9807C18.5258 33.6463 17.9951 33.9562 18.2008 34.2906Z" fill="#46A358"/>
<path d="M19.5176 36.8635C19.5875 37.0348 19.6533 37.2019 19.7232 37.3732C19.785 37.5241 19.9289 37.6342 20.1017 37.5853C20.2498 37.5445 20.3814 37.3651 20.3156 37.2101C20.2457 37.0388 20.1799 36.8716 20.1099 36.7004C20.0482 36.5495 19.9043 36.4394 19.7315 36.4883C19.5875 36.525 19.4558 36.7085 19.5176 36.8635Z" fill="#46A358"/>
</g>
<defs>
<clipPath id="clip0_42096_14380">
<rect width="68" height="49" fill="white" transform="translate(0 38)"/>
</clipPath>
<clipPath id="clip1_42096_14380">
<rect width="35" height="39" fill="white" transform="translate(16)"/>
</clipPath>
</defs>
</svg>
