<svg width="12" height="16" viewBox="0 0 12 16" fill="none" xmlns="http://www.w3.org/2000/svg">
<path fill-rule="evenodd" clip-rule="evenodd" d="M6.00098 1.65385C4.61136 1.65385 3.48485 2.77313 3.48485 4.15385C3.48485 5.53456 4.61136 6.65385 6.00098 6.65385C7.39059 6.65385 8.5171 5.53456 8.5171 4.15385C8.5171 2.77313 7.39059 1.65385 6.00098 1.65385ZM2.32356 4.15385C2.32356 2.13588 3.96999 0.5 6.00098 0.5C8.03196 0.5 9.67839 2.13588 9.67839 4.15385C9.67839 6.17181 8.03196 7.80769 6.00098 7.80769C3.96999 7.80769 2.32356 6.17181 2.32356 4.15385Z" fill="white"/>
<path fill-rule="evenodd" clip-rule="evenodd" d="M4.10061 10.5C2.47781 10.5 1.16227 11.8071 1.16227 13.4195C1.16227 13.5042 1.17784 13.5639 1.19416 13.5987C1.20795 13.6281 1.21977 13.6365 1.22963 13.6418C1.68088 13.8858 2.94609 14.3462 6.00098 14.3462C9.05586 14.3462 10.3211 13.8858 10.7723 13.6418C10.7822 13.6365 10.794 13.6281 10.8078 13.5987C10.8241 13.5639 10.8397 13.5042 10.8397 13.4195C10.8397 11.8071 9.52414 10.5 7.90134 10.5H4.10061ZM0.000976562 13.4195C0.000976562 11.1699 1.83644 9.34616 4.10061 9.34616H7.90134C10.1655 9.34616 12.001 11.1699 12.001 13.4195C12.001 13.8325 11.8505 14.3725 11.3274 14.6553C10.6344 15.03 9.14787 15.5 6.00098 15.5C2.85408 15.5 1.36752 15.03 0.674565 14.6553C0.151452 14.3725 0.000976562 13.8325 0.000976562 13.4195Z" fill="white"/>
</svg>
