<svg width="83" height="85" viewBox="0 0 83 85" fill="none" xmlns="http://www.w3.org/2000/svg">
<g clip-path="url(#clip0_42096_14495)">
<path d="M44.2991 44.0268C44.319 44.511 44.458 44.9691 44.7161 45.3813C44.9379 45.7412 45.5038 45.3977 45.2821 45.041C45.0868 44.7237 44.9776 44.3867 44.9643 44.017C44.9445 43.595 44.2826 43.608 44.2991 44.0268Z" fill="#46A358"/>
<path d="M52.8084 43.9843C52.7753 44.1675 52.7389 44.3474 52.7058 44.5307C52.6727 44.7041 52.7654 44.884 52.9441 44.9298C53.1096 44.9723 53.3148 44.8676 53.3479 44.6942C53.381 44.511 53.4174 44.3311 53.4505 44.1479C53.4836 43.9745 53.3909 43.7945 53.2122 43.7487C53.0467 43.7062 52.8415 43.8109 52.8084 43.9843Z" fill="#46A358"/>
<path d="M57.3386 44.6349C57.7655 44.6251 57.7523 43.9708 57.3254 43.9806C56.8984 43.9904 56.9117 44.6447 57.3386 44.6349Z" fill="#46A358"/>
<path d="M32.4812 45.7936C32.9081 45.7838 32.8949 45.1295 32.468 45.1393C32.041 45.1491 32.0543 45.8034 32.4812 45.7936Z" fill="#46A358"/>
<path d="M44.5871 4.38694C42.0322 11.8366 40.6389 19.6395 40.4866 27.5079C40.4105 31.4634 40.6455 35.4221 41.1916 39.3416C41.4431 41.1476 41.7608 42.947 42.1447 44.7301C42.4459 46.1238 42.6014 47.7171 43.6472 48.7804C44.094 49.2352 44.7791 48.5252 44.3356 48.0737C43.207 46.9254 43.0912 44.4978 42.8 42.9961C42.4326 41.0985 42.1414 39.1846 41.9263 37.2608C41.5192 33.6227 41.3835 29.9584 41.5126 26.3007C41.774 18.9198 43.1541 11.6206 45.5502 4.62905C45.7554 4.03033 44.789 3.79149 44.5871 4.38694Z" fill="#46A358"/>
<path d="M48.4389 4.52147C49.7759 11.9646 49.809 19.5712 50.0771 27.1059C50.2029 30.6459 50.418 34.1956 50.3452 37.7389C50.2691 41.4162 49.5443 44.8744 48.568 48.4078C48.3992 49.0196 49.3623 49.2585 49.531 48.6499C50.4478 45.3423 51.1759 42.0771 51.3149 38.6353C51.4704 34.7911 51.209 30.9272 51.0733 27.0895C50.8019 19.4633 50.7456 11.7781 49.392 4.24338C49.2795 3.62176 48.3264 3.90313 48.4389 4.52147Z" fill="#46A358"/>
<path d="M55.6274 17.3104C56.0808 27.4951 56.4911 37.8042 53.9759 47.7796C53.8204 48.3947 54.7834 48.6335 54.939 48.0217C57.4741 37.9613 57.0802 27.5606 56.6202 17.2908C56.5904 16.6593 55.5976 16.6757 55.6274 17.3104Z" fill="#46A358"/>
<path d="M52.8216 17.4608C51.4151 19.0868 50.4752 20.9778 50.0615 23.0815C49.9391 23.6999 50.9021 23.9453 51.0246 23.3236C51.4052 21.3803 52.2359 19.6463 53.5365 18.1413C53.9502 17.6604 53.2386 16.9798 52.8216 17.4608Z" fill="#46A358"/>
<path d="M62.6052 23.7159C62.582 31.0903 61.5825 38.396 59.6233 45.5119C59.4545 46.1237 60.4176 46.3625 60.5863 45.754C62.5654 38.5563 63.5748 31.1557 63.598 23.6963C63.598 23.0649 62.6052 23.0845 62.6052 23.7159Z" fill="#46A358"/>
<path d="M60.7183 21.5209C58.1501 24.4621 56.8892 28.0839 55.9824 31.8103C55.8335 32.4254 56.7965 32.6675 56.9455 32.0524C57.8126 28.5027 58.9841 25.0118 61.4365 22.2014C61.8502 21.7237 61.1353 21.04 60.7183 21.5209Z" fill="#46A358"/>
<path d="M36.7538 10.4166C38.521 14.5324 39.8051 18.7986 40.5994 23.1991C40.7119 23.8207 41.6618 23.536 41.5526 22.9177C40.7583 18.5173 39.4709 14.251 37.7069 10.1352C37.4587 9.56268 36.5056 9.83423 36.7538 10.4166Z" fill="#46A358"/>
<path d="M34.9137 10.7733C34.3941 17.0189 33.8844 23.3431 34.9368 29.5658C36.0389 36.0569 38.7461 42.3908 40.8278 48.6234C41.0263 49.2221 41.9795 48.944 41.7809 48.342C39.7654 42.2992 37.1608 36.155 35.9959 29.8865C34.8243 23.5754 35.377 17.1007 35.9065 10.7537C35.9595 10.1255 34.9666 10.1484 34.9137 10.7733Z" fill="#46A358"/>
<path d="M28.5969 25.8625C31.9097 28.9117 34.5937 32.4779 36.6059 36.4857C36.8905 37.0517 37.7345 36.5348 37.4532 35.972C35.4046 31.8922 32.6577 28.2574 29.2853 25.1526C28.8186 24.724 28.1303 25.4307 28.5969 25.8625Z" fill="#46A358"/>
<path d="M26.3228 27.1219C28.8877 34.6992 32.3395 41.9361 36.6253 48.7085C36.9629 49.2451 37.8135 48.7347 37.4726 48.1948C33.2298 41.4912 29.8144 34.3393 27.276 26.8406C27.0741 26.2451 26.1209 26.52 26.3228 27.1219Z" fill="#46A358"/>
<path d="M32.0677 46.7619C30.6049 44.1773 28.4604 42.0278 25.7929 40.6602C25.2501 40.3821 24.7305 40.4541 25.783 40.3494C26.1669 40.3102 26.564 40.2938 26.9479 40.3004C28.1989 40.3134 29.3308 40.5359 30.4064 41.2066C31.6573 41.9853 32.7495 43.1042 33.8681 44.0563C34.3513 44.4685 35.0397 43.7618 34.5565 43.3496C33.14 42.139 31.7368 40.6275 29.9993 39.875C29.0296 39.453 27.9805 39.3287 26.9281 39.3254C26.2595 39.3221 24.8695 39.1978 24.3102 39.7605C23.2181 40.8533 25.3097 41.4978 25.9617 41.8806C28.1989 43.1827 29.9596 45.0541 31.2205 47.2854C31.5316 47.8285 32.3788 47.3148 32.0677 46.7619Z" fill="#46A358"/>
<path d="M62.2809 38.7918C63.2506 36.6554 65.5044 35.9847 67.6489 35.5397C67.9633 35.4743 68.0891 35.0621 67.9302 34.8134C66.7653 32.9944 64.6439 32.8079 62.6549 32.9878C62.0228 33.0434 62.036 34.0249 62.6747 33.9693C64.2798 33.8254 66.1166 33.8156 67.083 35.3271C67.1757 35.085 67.2716 34.8429 67.3643 34.6008C64.9748 35.0948 62.4828 35.9487 61.4138 38.3141C61.1523 38.8867 62.0194 39.3676 62.2809 38.7918Z" fill="#46A358"/>
<path d="M28.4313 24.9135C27.9944 25.4827 27.5046 26.1927 26.7798 26.4217C26.065 26.6474 25.3005 26.3235 25.3567 25.4696C25.3998 24.8022 25.9789 24.3147 26.5415 24.0366C27.1968 23.7127 28.9939 23.559 28.5173 24.8022C28.2923 25.3944 29.2553 25.6267 29.4804 25.0443C29.9404 23.8436 28.835 22.7934 27.6635 22.7705C26.4323 22.7476 24.9993 23.5557 24.536 24.7106C24.1024 25.7804 24.5558 27.1186 25.7605 27.4228C27.2332 27.7925 28.3485 26.6376 29.1494 25.5972C29.53 25.0934 28.8185 24.4096 28.4313 24.9135Z" fill="#46A358"/>
<path d="M36.9954 9.68071C36.3765 9.79522 35.4796 10.1944 34.8607 9.8672C34.2418 9.53676 34.3544 8.71557 34.7118 8.24117C35.0858 7.74715 35.6749 7.5672 36.2706 7.73079C36.7538 7.86493 38.2596 9.11471 37.2105 9.54657C36.628 9.78541 36.9027 10.7309 37.4951 10.4888C38.7362 9.97844 38.6931 8.55852 37.8955 7.64573C37.0913 6.72311 35.6517 6.37304 34.5761 7.04374C33.6362 7.63264 33.1133 8.91514 33.623 9.94245C34.3444 11.4016 36.0323 10.852 37.28 10.623C37.9055 10.5052 37.6175 9.56293 36.9954 9.68071Z" fill="#46A358"/>
<path d="M48.7907 3.69345C47.9303 3.91266 46.9275 4.17112 46.0405 3.95846C44.7928 3.66401 44.7465 2.25064 45.6235 1.51778C46.3251 0.932153 47.4007 0.866719 48.2513 1.12191C48.7874 1.28222 49.4162 1.62902 49.5618 2.21138C49.7008 2.75775 49.4328 3.29758 48.8768 3.43172C48.2579 3.58222 48.5392 4.52446 49.1614 4.37396C50.6408 4.01408 50.9651 2.19175 50.055 1.11864C49.029 -0.0886126 46.9705 -0.294729 45.5904 0.372695C44.2931 1.00086 43.5021 2.68905 44.3659 3.97809C45.3654 5.47325 47.6192 5.00213 49.072 4.62915C49.6909 4.47539 49.4096 3.53314 48.7907 3.69345Z" fill="#46A358"/>
<path d="M55.8697 13.3414C54.4433 13.0895 52.8812 13.4984 52.2292 14.8954C51.6997 16.0274 52.1994 17.4964 53.4306 17.9217C54.6716 18.3503 56.5548 17.8203 57.2431 16.6818C57.9017 15.5858 57.4252 14.1953 56.386 13.541C55.8465 13.2007 55.3666 14.0612 55.9028 14.3981C56.5713 14.8169 56.7897 15.769 56.2437 16.3808C55.7572 16.9272 54.718 17.1594 54.0131 17.0351C53.1062 16.8748 52.7554 15.9358 53.2088 15.1604C53.7053 14.3131 54.7279 14.1364 55.6281 14.2934C56.2536 14.4047 56.4985 13.4526 55.8697 13.3414Z" fill="#46A358"/>
<path d="M63.5636 18.766C62.3093 18.6842 60.5718 18.8608 60.2938 20.3789C60.0655 21.6221 61.4952 23.2645 62.5906 23.7062C65.7181 24.9658 66.3866 18.6842 63.6894 18.851C63.0539 18.8903 63.0705 19.8718 63.7092 19.8325C64.5863 19.7769 64.3711 21.8282 64.1726 22.2339C63.7059 23.1991 62.8124 22.8457 62.2233 22.2307C61.7699 21.7563 60.9557 20.9154 61.4257 20.2349C61.8791 19.5806 62.8918 19.7049 63.5835 19.7475C64.2222 19.79 64.1957 18.8085 63.5636 18.766Z" fill="#46A358"/>
<path d="M45.6369 6.17667C45.5376 6.50711 45.435 6.83755 45.3358 7.16799C45.2133 7.57368 45.8554 7.73072 45.9778 7.3283C46.0771 6.99786 46.1797 6.66742 46.279 6.33698C46.4014 5.9313 45.7594 5.77425 45.6369 6.17667Z" fill="#46A358"/>
<path d="M47.0508 6.23233C47.0541 6.45154 47.0608 6.66747 47.0641 6.88667C47.074 7.30872 47.7359 7.29563 47.726 6.87358C47.7227 6.65438 47.716 6.43845 47.7127 6.21925C47.7061 5.7972 47.0442 5.81029 47.0508 6.23233Z" fill="#46A358"/>
<path d="M46.5803 10.1681C47.0072 10.1583 46.994 9.50397 46.567 9.51378C46.1434 9.52032 46.1567 10.1747 46.5803 10.1681Z" fill="#46A358"/>
<path d="M44.6043 10.5344C44.5745 10.8976 44.5447 11.264 44.5182 11.6272C44.505 11.8039 44.6903 11.9511 44.8558 11.9478C45.0511 11.9445 45.1669 11.7908 45.1801 11.6141C45.2099 11.2509 45.2397 10.8845 45.2662 10.5214C45.2794 10.3447 45.0941 10.1975 44.9286 10.2007C44.7334 10.204 44.6175 10.3578 44.6043 10.5344Z" fill="#46A358"/>
<path d="M46.17 11.5946C46.18 11.9938 46.1866 12.3929 46.1965 12.7953C46.2064 13.2174 46.8683 13.2043 46.8584 12.7823C46.8485 12.3831 46.8419 11.984 46.8319 11.5816C46.822 11.1595 46.1601 11.1726 46.17 11.5946Z" fill="#46A358"/>
<path d="M47.3404 9.2781C47.3835 9.60527 47.4265 9.93244 47.4695 10.2563C47.4927 10.433 47.6151 10.5802 47.8071 10.577C47.9692 10.5737 48.1546 10.4199 48.1314 10.2432C48.0884 9.91608 48.0454 9.58891 48.0023 9.26501C47.9792 9.08834 47.8567 8.94112 47.6648 8.94439C47.4993 8.94766 47.314 9.10143 47.3404 9.2781Z" fill="#46A358"/>
<path d="M47.4376 14.1855C47.4409 14.3687 47.4442 14.5486 47.4475 14.7318C47.4575 15.1539 48.1194 15.1408 48.1094 14.7187C48.1061 14.5355 48.1028 14.3556 48.0995 14.1724C48.0896 13.7503 47.4277 13.7634 47.4376 14.1855Z" fill="#46A358"/>
<path d="M46.004 8.86926C45.9709 9.19316 46.0437 9.49743 46.1794 9.79188C46.2522 9.95219 46.4971 9.98491 46.6361 9.89984C46.8049 9.79842 46.8182 9.61194 46.7454 9.44835C46.6593 9.26187 46.6461 9.05575 46.6659 8.85291C46.6825 8.67623 46.4905 8.52901 46.3284 8.53228C46.1331 8.53882 46.0206 8.69259 46.004 8.86926Z" fill="#46A358"/>
<path d="M43.6931 14.0646C43.6269 14.431 43.5607 14.7942 43.4945 15.1606C43.4184 15.5728 44.0605 15.7364 44.1366 15.3209C44.2028 14.9545 44.269 14.5913 44.3352 14.2249C44.408 13.8127 43.7692 13.6491 43.6931 14.0646Z" fill="#46A358"/>
<path d="M45.5178 16.3219C45.488 16.5771 45.4549 16.8323 45.4251 17.0875C45.4053 17.2641 45.4748 17.4375 45.6634 17.4866C45.819 17.5259 46.044 17.4277 46.0672 17.251C46.097 16.9958 46.1301 16.7407 46.1599 16.4855C46.1797 16.3088 46.1102 16.1354 45.9216 16.0863C45.766 16.0438 45.541 16.1452 45.5178 16.3219Z" fill="#46A358"/>
<path d="M44.9359 20.9777C44.9888 21.2558 44.9557 21.5273 44.8664 21.7923C44.7307 22.1915 45.3727 22.3518 45.5084 21.9526C45.6375 21.5731 45.6474 21.1838 45.5713 20.7912C45.5382 20.6178 45.3198 20.5229 45.1609 20.572C44.9723 20.6276 44.8995 20.8043 44.9359 20.9777Z" fill="#46A358"/>
<path d="M42.9123 18.3374C42.8826 18.5926 42.8495 18.8478 42.8197 19.103C42.7998 19.2797 42.8693 19.4531 43.058 19.5021C43.2135 19.5414 43.4386 19.4432 43.4617 19.2666C43.4915 19.0114 43.5246 18.7562 43.5544 18.501C43.5742 18.3243 43.5047 18.1509 43.3161 18.1019C43.1572 18.0626 42.9322 18.1607 42.9123 18.3374Z" fill="#46A358"/>
<path d="M47.4201 18.8577C47.4996 19.2208 47.5757 19.584 47.6551 19.9439C47.7445 20.3561 48.3799 20.1663 48.2905 19.7574C48.2111 19.3942 48.135 19.0311 48.0556 18.6712C47.9662 18.259 47.3341 18.4454 47.4201 18.8577Z" fill="#46A358"/>
<path d="M47.8536 23.6669C47.8602 24.0301 47.8701 24.3932 47.8767 24.7564C47.8867 25.1784 48.5486 25.1653 48.5386 24.7433C48.532 24.3801 48.5221 24.017 48.5155 23.6538C48.5088 23.2318 47.8469 23.2449 47.8536 23.6669Z" fill="#46A358"/>
<path d="M47.0735 28.4633C47.1165 28.7185 47.1562 28.9704 47.1992 29.2256C47.229 29.399 47.4541 29.4906 47.6096 29.4448C47.7982 29.3892 47.8611 29.2125 47.8313 29.0391C47.7883 28.7839 47.7486 28.532 47.7056 28.2768C47.6758 28.1034 47.4507 28.0118 47.2952 28.0576C47.1065 28.11 47.0437 28.2866 47.0735 28.4633Z" fill="#46A358"/>
<path d="M44.3731 26.0292C44.3764 26.2484 44.383 26.4643 44.3863 26.6835C44.3963 27.1056 45.0582 27.0925 45.0482 26.6705C45.0449 26.4513 45.0383 26.2353 45.035 26.0161C45.0284 25.5941 44.3665 25.6072 44.3731 26.0292Z" fill="#46A358"/>
<path d="M42.5494 23.2286C42.5725 23.5002 42.546 23.7554 42.4666 24.0171C42.3442 24.4228 42.9862 24.5798 43.1087 24.1774C43.2046 23.8666 43.2377 23.5394 43.2113 23.2155C43.1749 22.8 42.513 22.8099 42.5494 23.2286Z" fill="#46A358"/>
<path d="M43.3794 30.7603C43.3463 31.0155 43.3166 31.2706 43.2835 31.5258C43.2603 31.7025 43.3331 31.8759 43.5217 31.925C43.6773 31.9642 43.9023 31.8661 43.9255 31.6894C43.9586 31.4342 43.9884 31.179 44.0215 30.9238C44.0446 30.7472 43.9718 30.5738 43.7832 30.5247C43.6243 30.4854 43.4026 30.5836 43.3794 30.7603Z" fill="#46A358"/>
<path d="M46.756 34.4669C46.799 34.6828 46.8387 34.902 46.8818 35.118C46.9149 35.2914 47.1333 35.3863 47.2921 35.3372C47.4775 35.2816 47.547 35.1049 47.5139 34.9315C47.4709 34.7156 47.4311 34.4964 47.3881 34.2804C47.355 34.107 47.1366 34.0122 46.9777 34.0612C46.7924 34.1169 46.7229 34.2935 46.756 34.4669Z" fill="#46A358"/>
<path d="M44.9643 38.2131C45.0437 38.5763 45.1264 38.9362 45.2059 39.2993C45.2985 39.7116 45.9307 39.5218 45.8413 39.1129C45.7619 38.7497 45.6791 38.3898 45.5997 38.0267C45.507 37.6144 44.8716 37.8009 44.9643 38.2131Z" fill="#46A358"/>
<path d="M48.6591 40.5818C48.5896 40.837 48.5234 41.0922 48.4539 41.3507C48.3446 41.7596 48.9867 41.9199 49.0959 41.511C49.1654 41.2558 49.2316 41.0006 49.3011 40.7421C49.4103 40.3332 48.7683 40.1729 48.6591 40.5818Z" fill="#46A358"/>
<path d="M48.1651 12.1869C48.2081 12.4421 48.2511 12.6941 48.2941 12.9492C48.3239 13.1226 48.549 13.2143 48.7045 13.1684C48.8931 13.1128 48.956 12.9362 48.9262 12.7628C48.8832 12.5076 48.8402 12.2556 48.7972 12.0005C48.7674 11.8271 48.5423 11.7355 48.3868 11.7813C48.2015 11.8369 48.1353 12.0135 48.1651 12.1869Z" fill="#46A358"/>
<path d="M48.2447 16.6785C48.291 17.0057 48.3374 17.3296 48.3837 17.6567C48.4102 17.8301 48.526 17.9806 48.7213 17.9773C48.8834 17.9741 49.0688 17.8203 49.0456 17.6436C48.9993 17.3165 48.9529 16.9926 48.9066 16.6654C48.8801 16.492 48.7643 16.3415 48.569 16.3448C48.4069 16.3481 48.2182 16.5051 48.2447 16.6785Z" fill="#46A358"/>
<path d="M53.2088 20.3102C53.1194 20.8238 53.0267 21.3342 52.9374 21.8479C52.8646 22.2601 53.5066 22.4237 53.5794 22.0082C53.6688 21.4945 53.7615 20.9842 53.8508 20.4705C53.9236 20.0583 53.2816 19.8947 53.2088 20.3102Z" fill="#46A358"/>
<path d="M54.4961 19.3876C54.5028 19.6428 54.5061 19.898 54.5127 20.1499C54.5226 20.572 55.1845 20.5589 55.1746 20.1368C55.168 19.8816 55.1647 19.6264 55.158 19.3745C55.1481 18.9525 54.4895 18.9656 54.4961 19.3876Z" fill="#46A358"/>
<path d="M54.1349 22.8849C54.072 23.4313 54.0125 23.9777 53.9496 24.524C53.9033 24.9428 54.5652 24.9232 54.6115 24.5109C54.6744 23.9646 54.7339 23.4182 54.7968 22.8718C54.8432 22.4563 54.1813 22.4727 54.1349 22.8849Z" fill="#46A358"/>
<path d="M52.4215 23.8439C52.2792 24.1383 52.1402 24.4328 51.9978 24.724C51.8158 25.1035 52.395 25.4241 52.577 25.0413C52.7193 24.7469 52.8583 24.4524 53.0006 24.1613C53.1827 23.7817 52.6035 23.4611 52.4215 23.8439Z" fill="#46A358"/>
<path d="M51.4243 22.0935C51.3383 22.3159 51.2556 22.5352 51.1695 22.7576C51.1066 22.9245 51.2489 23.1142 51.4078 23.1568C51.5964 23.2058 51.7454 23.0848 51.8116 22.9212C51.8976 22.6987 51.9803 22.4795 52.0664 22.2571C52.1293 22.0902 51.987 21.9004 51.8281 21.8579C51.6395 21.8088 51.4905 21.9266 51.4243 22.0935Z" fill="#46A358"/>
<path d="M53.3141 26.3923C53.3008 26.6834 53.2909 26.9746 53.2776 27.2658C53.2611 27.6879 53.923 27.6715 53.9395 27.2527C53.9528 26.9615 53.9627 26.6704 53.976 26.3792C53.9925 25.9571 53.3306 25.9735 53.3141 26.3923Z" fill="#46A358"/>
<path d="M54.671 28.1101C54.6577 28.3817 54.6445 28.6565 54.6313 28.9281C54.6213 29.1047 54.8 29.2519 54.9688 29.2487C55.1575 29.2454 55.2832 29.0916 55.2932 28.915C55.3064 28.6434 55.3196 28.3686 55.3329 28.097C55.3428 27.9204 55.1641 27.7731 54.9953 27.7764C54.8067 27.7797 54.6809 27.9335 54.671 28.1101Z" fill="#46A358"/>
<path d="M54.1494 31.0348C54.1197 31.2703 54.0866 31.5092 54.0568 31.7447C54.0336 31.9181 54.1097 32.0948 54.2951 32.1439C54.4539 32.1831 54.6757 32.085 54.6988 31.9083C54.7286 31.6727 54.7617 31.4339 54.7915 31.1984C54.8147 31.025 54.7385 30.8483 54.5532 30.7992C54.3943 30.7567 54.1726 30.8581 54.1494 31.0348Z" fill="#46A358"/>
<path d="M51.6793 29.0128C51.6462 29.2124 51.6131 29.4152 51.58 29.6148C51.5502 29.7882 51.6363 29.9649 51.8183 30.0139C51.9805 30.0532 52.1923 29.9518 52.2221 29.7784C52.2551 29.5788 52.2882 29.376 52.3213 29.1764C52.3511 29.003 52.2651 28.8263 52.0831 28.7772C51.9209 28.7347 51.7091 28.8361 51.6793 29.0128Z" fill="#46A358"/>
<path d="M52.1564 34.2148C52.1597 34.3587 52.163 34.5059 52.1663 34.6499C52.1762 35.0719 52.8381 35.0588 52.8282 34.6368C52.8249 34.4928 52.8216 34.3456 52.8183 34.2017C52.8083 33.7796 52.1464 33.7927 52.1564 34.2148Z" fill="#46A358"/>
<path d="M54.295 36.1352C54.2983 36.2791 54.3017 36.4263 54.305 36.5703C54.3149 36.9923 54.9768 36.9793 54.9669 36.5572C54.9636 36.4133 54.9602 36.266 54.9569 36.1221C54.947 35.7 54.2851 35.7131 54.295 36.1352Z" fill="#46A358"/>
<path d="M52.3889 40.1005C52.4154 40.3557 52.3889 40.5913 52.3061 40.8334C52.2499 41.0002 52.3823 41.19 52.5444 41.2325C52.7298 41.2783 52.8886 41.1638 52.9482 40.9969C53.0475 40.7058 53.0839 40.395 53.0508 40.0907C53.0309 39.914 52.9019 39.7668 52.7132 39.7701C52.5444 39.7701 52.369 39.9238 52.3889 40.1005Z" fill="#46A358"/>
<path d="M53.2056 18.6517C53.1195 18.8185 53.0302 18.9854 52.9441 19.149C52.7489 19.5219 53.3247 19.8425 53.5233 19.4663C53.6093 19.2994 53.6987 19.1326 53.7847 18.969C53.98 18.596 53.4041 18.2754 53.2056 18.6517Z" fill="#46A358"/>
<path d="M36.0394 12.4321C36.099 12.7756 36.1619 13.1224 36.2214 13.4659C36.2512 13.6393 36.4763 13.7309 36.6318 13.6851C36.8205 13.6295 36.8867 13.4528 36.8536 13.2794C36.794 12.9359 36.7311 12.5891 36.6715 12.2456C36.6418 12.0722 36.4167 11.9806 36.2612 12.0264C36.0725 12.082 36.0063 12.2587 36.0394 12.4321Z" fill="#46A358"/>
<path d="M37.0265 14.595C37.1787 14.9549 37.3343 15.318 37.4865 15.6779C37.556 15.8415 37.7149 15.9527 37.8969 15.8971C38.0524 15.8513 38.1881 15.655 38.1186 15.4914C37.9664 15.1315 37.8108 14.7684 37.6586 14.4085C37.5891 14.2449 37.4303 14.1337 37.2482 14.1893C37.0927 14.2351 36.957 14.4314 37.0265 14.595Z" fill="#46A358"/>
<path d="M36.1228 15.8019C36.0467 16.3057 36.0533 16.7867 36.1427 17.284C36.2155 17.6962 36.8476 17.5097 36.7781 17.0975C36.7119 16.7245 36.7119 16.3384 36.7682 15.9622C36.8244 15.55 36.1824 15.3864 36.1228 15.8019Z" fill="#46A358"/>
<path d="M37.38 17.6931C37.4925 18.0006 37.6017 18.3114 37.7143 18.619C37.8566 19.0149 38.492 18.8316 38.3497 18.4325C38.2372 18.125 38.128 17.8141 38.0154 17.5066C37.8731 17.1107 37.2377 17.294 37.38 17.6931Z" fill="#46A358"/>
<path d="M35.8399 19.0019C35.8465 19.365 35.8564 19.7282 35.8631 20.0913C35.873 20.5134 36.5349 20.5003 36.525 20.0783C36.5183 19.7151 36.5084 19.3519 36.5018 18.9888C36.4952 18.5667 35.8333 18.5798 35.8399 19.0019Z" fill="#46A358"/>
<path d="M37.0821 20.2318C37.0888 20.559 37.0954 20.8862 37.102 21.2134C37.1119 21.6354 37.7738 21.6223 37.7639 21.2003C37.7573 20.8731 37.7507 20.5459 37.744 20.2188C37.7341 19.7967 37.0722 19.8098 37.0821 20.2318Z" fill="#46A358"/>
<path d="M38.9319 20.8796C39.0642 21.2591 39.1999 21.6387 39.3323 22.0182C39.4713 22.414 40.1067 22.2308 39.9677 21.8317C39.8354 21.4522 39.6997 21.0727 39.5673 20.6931C39.4283 20.2973 38.7929 20.4805 38.9319 20.8796Z" fill="#46A358"/>
<path d="M39.6573 24.1383C39.697 24.3379 39.74 24.5375 39.7798 24.737C39.8162 24.9104 40.0313 25.0053 40.1901 24.9562C40.3755 24.9006 40.4483 24.7239 40.4119 24.5505C40.3722 24.351 40.3291 24.1514 40.2894 23.9518C40.253 23.7784 40.0379 23.6835 39.879 23.7326C39.697 23.785 39.6209 23.9649 39.6573 24.1383Z" fill="#46A358"/>
<path d="M37.839 24.1741C37.9482 24.4816 38.0276 24.7957 38.064 25.1196C38.0839 25.2962 38.213 25.4435 38.4016 25.4402C38.5671 25.4369 38.7458 25.2831 38.7259 25.1065C38.6829 24.7237 38.6035 24.3507 38.4744 23.9876C38.3321 23.5917 37.6967 23.7749 37.839 24.1741Z" fill="#46A358"/>
<path d="M36.1407 22.8691C36.1473 23.1242 36.1506 23.3794 36.1572 23.6314C36.1672 24.0534 36.8291 24.0403 36.8191 23.6183C36.8125 23.3631 36.8092 23.1079 36.8026 22.856C36.7926 22.4339 36.1341 22.447 36.1407 22.8691Z" fill="#46A358"/>
<path d="M36.9385 26.7782C36.965 27.1054 37.0278 27.426 37.137 27.7335C37.2794 28.1294 37.9148 27.9462 37.7725 27.5471C37.6798 27.2919 37.6202 27.0334 37.6004 26.7651C37.5706 26.3464 36.9087 26.3594 36.9385 26.7782Z" fill="#46A358"/>
<path d="M38.3898 29.563C38.4494 29.7626 38.5089 29.9622 38.5685 30.1585C38.6877 30.5609 39.3231 30.3777 39.2039 29.972C39.1444 29.7724 39.0848 29.5761 39.0252 29.3765C38.9061 28.9741 38.2707 29.1573 38.3898 29.563Z" fill="#46A358"/>
<path d="M39.1676 27.0371C39.2073 27.181 39.247 27.325 39.2867 27.4722C39.3993 27.8779 40.0347 27.6914 39.9222 27.2857C39.8824 27.1418 39.8427 26.9978 39.803 26.8506C39.6905 26.4449 39.0551 26.6314 39.1676 27.0371Z" fill="#46A358"/>
<path d="M37.2905 32.4774C37.3732 32.8013 37.4526 33.1285 37.5354 33.4524C37.638 33.8613 38.2734 33.6748 38.1708 33.2659C38.0881 32.942 38.0086 32.6148 37.9259 32.2909C37.8233 31.882 37.1879 32.0684 37.2905 32.4774Z" fill="#46A358"/>
<path d="M38.9357 37.2415C38.9953 37.3854 39.0515 37.5294 39.1111 37.6733C39.1773 37.8369 39.3395 37.9481 39.5215 37.8925C39.6803 37.8467 39.8094 37.6504 39.7432 37.4868C39.6837 37.3429 39.6274 37.1989 39.5678 37.055C39.5016 36.8914 39.3395 36.7802 39.1574 36.8358C38.9986 36.8816 38.8695 37.0779 38.9357 37.2415Z" fill="#46A358"/>
<path d="M60.4801 23.6831C60.3047 24.0332 60.126 24.38 59.9506 24.73C59.7586 25.1063 60.3378 25.4269 60.5297 25.0474C60.7051 24.6973 60.8839 24.3505 61.0593 24.0004C61.2512 23.6242 60.672 23.3068 60.4801 23.6831Z" fill="#46A358"/>
<path d="M61.4059 24.5047C61.3231 24.8352 61.2371 25.1623 61.1543 25.4928C61.0484 25.9017 61.6905 26.0621 61.7964 25.6531C61.8791 25.3227 61.9652 24.9955 62.0479 24.6651C62.1505 24.2594 61.5084 24.0991 61.4059 24.5047Z" fill="#46A358"/>
<path d="M60.5931 27.6323C60.5104 27.9071 60.4277 28.1819 60.3416 28.4567C60.2192 28.8624 60.8612 29.0195 60.9837 28.617C61.0664 28.3422 61.1491 28.0674 61.2352 27.7926C61.3543 27.3902 60.7123 27.2298 60.5931 27.6323Z" fill="#46A358"/>
<path d="M60.0364 26.3071C59.9669 26.4347 59.8941 26.5655 59.8246 26.6931C59.6194 27.0628 60.1985 27.3835 60.4037 27.0105C60.4732 26.8829 60.546 26.752 60.6155 26.6244C60.8207 26.258 60.2416 25.9374 60.0364 26.3071Z" fill="#46A358"/>
<path d="M61.6708 26.4644C61.641 26.7196 61.6112 26.9748 61.5814 27.2299C61.5615 27.4066 61.631 27.58 61.8197 27.6291C61.9752 27.6683 62.2003 27.5702 62.2234 27.3935C62.2532 27.1383 62.283 26.8831 62.3128 26.628C62.3327 26.4513 62.2632 26.2779 62.0745 26.2288C61.9157 26.1895 61.6906 26.2877 61.6708 26.4644Z" fill="#46A358"/>
<path d="M58.5531 28.1625C58.4869 28.3719 58.3877 28.5616 58.2685 28.7448C58.0369 29.0982 58.616 29.4155 58.8477 29.0622C58.9999 28.8332 59.1124 28.5845 59.1952 28.3228C59.2481 28.1559 59.1224 27.9662 58.9569 27.9236C58.7716 27.8811 58.6061 27.9923 58.5531 28.1625Z" fill="#46A358"/>
<path d="M58.5341 30.9756C58.3918 31.2079 58.3223 31.4729 58.3356 31.7445C58.3554 32.1633 59.0173 32.1534 58.9975 31.7314C58.9909 31.5678 59.024 31.4337 59.1133 31.2963C59.3351 30.9331 58.7559 30.6158 58.5341 30.9756Z" fill="#46A358"/>
<path d="M60.2588 30.2563C60.1926 30.4755 60.1264 30.6979 60.0635 30.9171C59.9444 31.3228 60.5864 31.4799 60.7055 31.0775C60.7717 30.8583 60.8379 30.6358 60.9008 30.4166C61.0199 30.0109 60.3779 29.8538 60.2588 30.2563Z" fill="#46A358"/>
<path d="M59.7113 33.4824C59.6418 33.7212 59.5756 33.9568 59.5061 34.1956C59.3903 34.6013 60.0323 34.7616 60.1481 34.3559C60.2176 34.1171 60.2838 33.8815 60.3533 33.6427C60.4692 33.2403 59.8271 33.0799 59.7113 33.4824Z" fill="#46A358"/>
<path d="M61.8095 28.8362C61.7929 28.9834 61.7797 29.1274 61.7631 29.2746C61.7433 29.4513 61.9385 29.5985 62.1007 29.5952C62.2993 29.592 62.4052 29.4382 62.425 29.2615C62.4416 29.1143 62.4548 28.9703 62.4714 28.8231C62.4912 28.6464 62.296 28.4992 62.1338 28.5025C61.9352 28.509 61.8293 28.6595 61.8095 28.8362Z" fill="#46A358"/>
<path d="M57.654 35.3794C57.6209 35.4906 57.5845 35.5986 57.5514 35.7098C57.4256 36.1123 58.0677 36.2726 58.1934 35.8701C58.2265 35.7589 58.2629 35.6509 58.296 35.5397C58.4218 35.1373 57.7798 34.9802 57.654 35.3794Z" fill="#46A358"/>
<path d="M57.1216 38.7199C57.0521 38.9032 56.9792 39.0864 56.9097 39.2696C56.8469 39.4332 56.9892 39.6262 57.148 39.6687C57.34 39.7178 57.4856 39.5967 57.5518 39.4332C57.6213 39.2499 57.6941 39.0667 57.7636 38.8835C57.8265 38.7199 57.6842 38.5269 57.5253 38.4844C57.3334 38.4353 57.1877 38.5531 57.1216 38.7199Z" fill="#46A358"/>
<path d="M59.7247 37.3886C59.728 37.4965 59.728 37.6078 59.7313 37.7157C59.7413 38.1378 60.4032 38.1247 60.3932 37.7027C60.3899 37.5947 60.3899 37.4835 60.3866 37.3755C60.3767 36.9535 59.7148 36.9665 59.7247 37.3886Z" fill="#46A358"/>
<path d="M58.4911 41.7234C58.4745 41.8706 58.4613 42.0146 58.4448 42.1618C58.4249 42.3385 58.6202 42.4857 58.7823 42.4824C58.9809 42.4792 59.0868 42.3254 59.1067 42.1487C59.1232 42.0015 59.1364 41.8576 59.153 41.7103C59.1729 41.5337 58.9776 41.3864 58.8154 41.3897C58.6202 41.393 58.5109 41.5467 58.4911 41.7234Z" fill="#46A358"/>
<path d="M28.2594 28.0806C28.3157 28.2606 28.3752 28.4438 28.4315 28.6237C28.5572 29.0261 29.1927 28.8397 29.0669 28.4373C29.0106 28.2573 28.9511 28.0741 28.8948 27.8942C28.7657 27.4917 28.1303 27.6782 28.2594 28.0806Z" fill="#46A358"/>
<path d="M28.9405 27.3379C29.1623 27.6094 29.3873 27.881 29.6091 28.1492C29.7216 28.2867 29.9632 28.2572 30.0757 28.1394C30.2114 27.9987 30.1783 27.8155 30.0658 27.6781C29.844 27.4066 29.619 27.135 29.3972 26.8667C29.2847 26.7293 29.0431 26.7588 28.9306 26.8766C28.7949 27.014 28.828 27.2005 28.9405 27.3379Z" fill="#46A358"/>
<path d="M30.21 29.6411C30.402 29.9093 30.5939 30.1776 30.7826 30.4426C31.0275 30.7861 31.5934 30.4459 31.3485 30.1024C31.1565 29.8341 30.9646 29.5658 30.7759 29.3008C30.5277 28.9573 29.9618 29.2943 30.21 29.6411Z" fill="#46A358"/>
<path d="M29.3971 30.4233C29.5494 30.6752 29.7016 30.9271 29.8538 31.1791C30.0723 31.5389 30.6382 31.1987 30.4198 30.8388C30.2675 30.5869 30.1153 30.335 29.963 30.083C29.7413 29.7199 29.1787 30.0601 29.3971 30.4233Z" fill="#46A358"/>
<path d="M30.8796 33.1221C31.0715 33.4624 31.2668 33.8026 31.4587 34.1429C31.6672 34.5093 32.2331 34.1691 32.0246 33.8026C31.8327 33.4624 31.6374 33.1221 31.4455 32.7819C31.2337 32.4155 30.6711 32.7557 30.8796 33.1221Z" fill="#46A358"/>
<path d="M31.4656 32.131C31.598 32.3273 31.7303 32.5269 31.8627 32.7232C32.0977 33.0732 32.6636 32.733 32.4286 32.3829C32.2963 32.1866 32.1639 31.987 32.0315 31.7907C31.7932 31.4407 31.2273 31.7777 31.4656 32.131Z" fill="#46A358"/>
<path d="M31.7732 30.757C31.8824 30.9893 32.0678 31.1693 32.2895 31.3001C32.6602 31.5128 32.9812 30.9402 32.6105 30.7276C32.4781 30.6523 32.3987 30.5509 32.3358 30.4168C32.2597 30.2565 32.0214 30.2237 31.8791 30.3088C31.7169 30.4102 31.6971 30.5967 31.7732 30.757Z" fill="#46A358"/>
<path d="M29.2913 32.4742C29.3343 32.6542 29.374 32.8341 29.417 33.0173C29.4567 33.1907 29.6652 33.2856 29.8274 33.2365C30.0094 33.1842 30.0889 33.001 30.0491 32.8309C30.0061 32.6509 29.9664 32.471 29.9234 32.2878C29.8837 32.1144 29.6752 32.0195 29.513 32.0686C29.331 32.1209 29.2515 32.3041 29.2913 32.4742Z" fill="#46A358"/>
<path d="M31.38 35.8936C31.5322 36.2011 31.6845 36.5087 31.8334 36.8129C31.9128 36.9733 32.1478 37.006 32.2901 36.9209C32.4556 36.8228 32.4787 36.6297 32.3993 36.4694C32.2471 36.1619 32.0948 35.8543 31.9459 35.5501C31.8665 35.3898 31.6315 35.357 31.4892 35.4421C31.3237 35.5435 31.3006 35.7366 31.38 35.8936Z" fill="#46A358"/>
<path d="M33.8523 34.9676C33.9682 35.1835 34.0807 35.3995 34.1965 35.6154C34.3951 35.9884 34.9577 35.6448 34.7625 35.2751C34.6466 35.0592 34.5341 34.8433 34.4183 34.6274C34.2164 34.2544 33.6538 34.5946 33.8523 34.9676Z" fill="#46A358"/>
<path d="M34.6054 39.6463C34.7013 39.8263 34.7973 40.0062 34.8966 40.1829C35.0985 40.5558 35.6611 40.2123 35.4625 39.8426C35.3665 39.6627 35.2706 39.4827 35.1713 39.3061C34.9694 38.9331 34.4035 39.2734 34.6054 39.6463Z" fill="#46A358"/>
<path d="M35.7818 37.987C35.8943 38.167 36.0101 38.3469 36.1227 38.5269C36.3477 38.8835 36.9136 38.5432 36.6886 38.1866C36.5761 38.0067 36.4602 37.8267 36.3477 37.6468C36.1193 37.2902 35.5534 37.6304 35.7818 37.987Z" fill="#46A358"/>
<path d="M37.0974 43.0323C37.1901 43.1959 37.2861 43.3562 37.3787 43.5198C37.5906 43.8862 38.1532 43.5427 37.9447 43.1795C37.852 43.0159 37.756 42.8556 37.6634 42.692C37.4516 42.3256 36.8856 42.6659 37.0974 43.0323Z" fill="#46A358"/>
<path d="M26.4243 41.0104C26.646 41.1151 26.8711 41.2165 27.0928 41.3212C27.4767 41.5012 27.8011 40.9286 27.4138 40.7487C27.1921 40.644 26.9671 40.5426 26.7453 40.4379C26.3647 40.2612 26.0404 40.8305 26.4243 41.0104Z" fill="#46A358"/>
<path d="M28.5322 41.9621C28.7771 42.1355 29.022 42.3122 29.2636 42.4856C29.4093 42.5903 29.6343 42.5019 29.7137 42.358C29.8097 42.1879 29.7303 42.0177 29.5847 41.913C29.3398 41.7396 29.0949 41.563 28.8533 41.3896C28.7076 41.2849 28.4826 41.3732 28.4032 41.5172C28.3105 41.6873 28.3899 41.8574 28.5322 41.9621Z" fill="#46A358"/>
<path d="M28.209 40.9611C28.3778 40.9971 28.5334 41.0527 28.6856 41.1378C29.0596 41.3406 29.3806 40.7681 29.0066 40.5652C28.8081 40.4573 28.5929 40.3755 28.3712 40.3264C27.9575 40.2348 27.792 40.8695 28.209 40.9611Z" fill="#46A358"/>
<path d="M30.1481 42.3581C30.297 42.4628 30.446 42.5708 30.5949 42.6755C30.7405 42.7769 30.9655 42.6918 31.045 42.5479C31.141 42.3778 31.0615 42.2044 30.9159 42.1029C30.767 41.9982 30.618 41.8903 30.4691 41.7856C30.3235 41.6842 30.0985 41.7692 30.019 41.9132C29.9264 42.0833 30.0025 42.2534 30.1481 42.3581Z" fill="#46A358"/>
<path d="M30.1009 43.3364C30.1771 43.4443 30.2532 43.5523 30.3293 43.6602C30.5709 44.0038 31.1368 43.6668 30.8952 43.32C30.8191 43.212 30.743 43.1041 30.6669 42.9961C30.4253 42.6493 29.856 42.9895 30.1009 43.3364Z" fill="#46A358"/>
<path d="M31.6018 43.8632C31.7507 43.9875 31.8996 44.1118 32.0519 44.2361C32.1876 44.3506 32.3894 44.3605 32.5185 44.2263C32.6376 44.1053 32.6476 43.8763 32.5086 43.765C32.3596 43.6407 32.2107 43.5164 32.0585 43.392C31.9228 43.2775 31.7209 43.2677 31.5918 43.4019C31.4727 43.5196 31.4628 43.7487 31.6018 43.8632Z" fill="#46A358"/>
<path d="M65.7619 34.2249C65.4078 34.1595 65.057 34.166 64.7062 34.2543C64.2925 34.359 64.4811 34.9872 64.8948 34.8825C65.1265 34.8236 65.3614 34.8138 65.5964 34.8596C66.0167 34.9381 66.1789 34.3034 65.7619 34.2249Z" fill="#46A358"/>
<path d="M63.4787 34.9019C63.3529 34.9967 63.2238 35.0883 63.0981 35.1832C62.9558 35.2879 62.8896 35.4711 62.9888 35.6347C63.0749 35.7754 63.2999 35.8506 63.4456 35.7427C63.5713 35.6478 63.7004 35.5562 63.8262 35.4613C63.9685 35.3566 64.0347 35.1734 63.9354 35.0098C63.8493 34.8691 63.6243 34.7972 63.4787 34.9019Z" fill="#46A358"/>
<path d="M63.5847 34.5812C64.0116 34.5714 63.9984 33.9171 63.5715 33.9269C63.1445 33.9367 63.1578 34.591 63.5847 34.5812Z" fill="#46A358"/>
</g>
<g clip-path="url(#clip1_42096_14495)">
<path d="M30.3864 47.6166C28.0451 53.6312 26.3976 59.9165 25.8573 66.3711C25.3971 71.8881 25.5372 77.8383 28.5587 82.6513C28.9056 83.203 29.7594 82.675 29.4125 82.1199C26.3809 77.2934 26.3876 71.2382 26.9145 65.7246C27.5015 59.5814 29.129 53.5939 31.3569 47.8671C31.5903 47.2612 30.6198 47.0175 30.3864 47.6166Z" fill="#727272"/>
<path d="M60.7875 46.6855C66.1136 50.7471 66.1203 58.1933 66.6939 64.3061C66.9841 67.3895 67.3843 70.4831 67.5244 73.58C67.6544 76.4096 67.421 79.4152 65.2132 81.4189C64.7329 81.8556 65.4566 82.5562 65.9335 82.1229C67.8779 80.3595 68.4782 77.8346 68.5449 75.2724C68.6416 71.6237 68.0313 67.9141 67.6911 64.2891C67.0942 57.9192 67.0208 50.1818 61.4779 45.9544C60.971 45.5652 60.2739 46.2929 60.7875 46.6855Z" fill="#727272"/>
<path d="M28.7574 82.8539C31.5823 83.8862 34.4704 84.1435 37.442 84.3973C40.7304 84.6783 44.0488 85.1013 47.3538 84.9829C50.7089 84.8644 54.074 84.3804 57.4091 84.0149C60.3273 83.6933 63.2221 83.2872 65.9435 82.1093C66.5272 81.8554 66.2504 80.8773 65.6567 81.1345C62.8352 82.3564 59.8403 82.7355 56.8154 83.0604C53.6671 83.3988 50.4988 83.8558 47.3338 83.9675C44.2322 84.0792 41.1239 83.6967 38.0356 83.4361C34.9574 83.1721 31.9358 82.9419 29.0042 81.8724C28.3973 81.6456 28.1571 82.6339 28.7574 82.8539Z" fill="#727272"/>
<path d="M30.6263 48.1849C32.9542 49.1495 35.3321 50.0025 37.8434 50.3037C40.4548 50.6151 43.1162 50.1683 45.7442 50.236C47.2017 50.2732 48.5123 50.4729 49.9831 50.2597C51.2504 50.0735 52.5178 49.8163 53.7484 49.4609C56.2997 48.723 58.771 47.6941 61.2757 46.8073C61.8793 46.5941 61.5992 45.6193 60.9888 45.8325C56.0863 47.5689 51.4906 49.5963 46.1978 49.2477C43.9966 49.1021 41.8055 49.4304 39.611 49.4101C36.6561 49.3797 33.8147 48.4184 31.1066 47.2981C30.5229 47.0544 30.0294 47.9378 30.6263 48.1849Z" fill="#727272"/>
<path d="M0.663844 51.2413C6.26677 52.1348 11.4795 54.8257 15.3849 59.0193C19.1635 63.0775 21.2879 68.4252 25.4101 72.1924C25.887 72.629 26.584 71.8979 26.1038 71.4613C21.7348 67.4674 19.5504 61.6898 15.3482 57.5368C11.4128 53.6478 6.32346 51.1194 0.910639 50.2564C0.276975 50.1548 0.0268443 51.1398 0.663844 51.2413Z" fill="#727272"/>
<path d="M1.5371 49.4236C6.62309 48.2458 12.0292 48.9464 16.5983 51.5424C20.2435 53.6138 23.2351 56.8868 27.5874 57.3336C28.2277 57.3979 28.201 56.3825 27.5674 56.3182C22.6848 55.8173 19.163 51.3529 14.7607 49.5184C10.4684 47.7313 5.76264 47.4064 1.25362 48.4488C0.623286 48.5944 0.910103 49.5692 1.5371 49.4236Z" fill="#727272"/>
<path d="M0.723598 48.7433C0.340064 49.2781 0.0932688 49.9042 0.0065569 50.5575C-0.0301289 50.8316 0.0865987 51.099 0.37008 51.1735C0.60687 51.2378 0.940378 51.0787 0.977064 50.8045C1.05377 50.2224 1.25721 49.7113 1.59739 49.2341C1.75747 49.0107 1.6174 48.6688 1.40395 48.5436C1.14715 48.3981 0.880347 48.5233 0.723598 48.7433Z" fill="#727272"/>
<path d="M64.8108 49.6708C66.8785 45.6532 73.4486 45.1354 77.1572 46.9766C81.176 48.9736 83.0303 53.8103 81.3828 58.0411C79.9487 61.727 76.2634 63.531 73.2319 65.6566C71.9545 66.5535 70.5338 67.5622 69.65 68.8856C68.7262 70.2699 68.8462 72.0299 67.9324 73.4109C67.5722 73.9558 68.4494 74.4432 68.8062 73.905C69.3832 73.0352 69.5499 72.1078 69.8067 71.1127C70.1703 69.7216 70.8973 68.828 71.9412 67.9176C73.7388 66.3505 75.8466 65.2166 77.7609 63.812C81.1493 61.3242 83.5272 57.7906 82.8969 53.3635C82.3199 49.3324 79.1249 45.9985 75.1795 45.264C71.2041 44.5227 65.9647 45.2369 63.9337 49.18C63.6369 49.7554 64.5106 50.2496 64.8108 49.6708Z" fill="#727272"/>
<path d="M65.8232 52.2261C67.2073 49.4236 70.3589 48.6993 73.2204 48.9227C75.1281 49.0716 76.3053 49.8331 77.3025 51.495C78.4064 53.3295 78.3531 54.8831 77.7294 56.8394C76.7489 59.9059 74.9813 61.3275 72.2632 62.766C70.4823 63.7069 67.7642 64.9389 67.0539 67.0205C66.8437 67.6399 67.8143 67.8836 68.0244 67.2709C68.6714 65.3755 71.8464 64.1435 73.4805 63.2669C74.8979 62.5087 76.2253 61.6727 77.1825 60.3358C78.6966 58.2237 79.9406 54.7748 78.8433 52.2735C77.5026 49.2137 75.4516 47.8565 72.1765 47.8802C69.2617 47.9005 66.3235 48.9565 64.9528 51.7319C64.6626 52.3141 65.5364 52.8083 65.8232 52.2261Z" fill="#727272"/>
<path d="M47.3086 59.5711C44.367 60.0145 41.8824 62.2348 41.5856 65.3386C41.3021 68.2968 43.2698 72.1485 46.6115 71.9218C49.6598 71.7153 52.3679 68.7165 52.648 65.7177C52.9582 62.4176 50.5203 59.5406 47.2085 59.6862C46.5649 59.7133 46.5849 60.7287 47.2285 60.7016C50.1334 60.573 52.1344 63.2672 51.5908 66.1035C51.1506 68.3983 48.9694 70.7134 46.5915 70.9097C43.67 71.1501 42.1792 67.3965 42.6428 64.9595C43.0864 62.6241 45.0574 60.9317 47.3286 60.5899C47.9556 60.4917 47.9456 59.473 47.3086 59.5711Z" fill="#727272"/>
<path d="M47.8825 60.0145C47.7058 57.8619 51.0375 54.5889 52.705 57.08C53.222 57.8517 53.7222 59.2225 53.5088 60.1736C53.2787 61.1924 52.2948 61.9539 51.5411 62.5801C51.0442 62.993 51.7712 63.6936 52.2615 63.2841C53.4488 62.2992 54.6694 61.1179 54.556 59.429C54.4626 58.048 53.7089 56.2271 52.5216 55.4689C49.9869 53.8477 46.6786 57.5606 46.882 60.0382C46.9354 60.6847 47.9359 60.6678 47.8825 60.0145Z" fill="#727272"/>
<path d="M52.5269 63.5104C53.7809 62.7556 57.0259 62.9553 56.6891 65.135C56.3689 67.2132 53.7175 67.2978 52.1467 67.3181C51.503 67.3249 51.523 68.3403 52.1667 68.3335C54.3712 68.3065 58.2265 67.6025 57.6763 64.4378C57.2427 61.9534 53.7875 61.5676 52.0033 62.6439C51.4497 62.979 51.9699 63.8455 52.5269 63.5104Z" fill="#727272"/>
<path d="M51.5198 68.5196C53.2741 69.3048 55.2484 71.6369 53.5809 73.5188C51.6299 75.7188 48.8084 73.5425 48.088 71.4203C47.8779 70.8043 46.9174 71.0886 47.1275 71.7113C48.0613 74.4529 51.4264 76.8222 54.0211 74.4969C56.5424 72.2394 54.538 68.7667 52.0067 67.6294C51.4231 67.3688 50.9328 68.2556 51.5198 68.5196Z" fill="#727272"/>
<path d="M46.6472 71.6748C46.7372 73.3807 46.267 75.9192 44.0058 75.6146C42.9786 75.4758 42.1882 74.5383 42.2348 73.4755C42.2749 72.521 42.9385 71.4074 43.3021 70.5342C43.5489 69.9385 42.6784 69.4376 42.4283 70.04C41.898 71.3194 40.9775 72.8121 41.3177 74.2573C41.5945 75.4284 42.505 76.3592 43.6723 76.5928C46.6505 77.1918 47.7744 74.0746 47.6477 71.6511C47.6143 71.0013 46.6138 71.0182 46.6472 71.6748Z" fill="#727272"/>
<path d="M43.1656 69.2715C41.3013 70.0534 38.4232 69.8537 37.7728 67.481C37.4894 66.4385 37.8062 65.2065 38.77 64.6413C39.7072 64.093 40.9178 64.2385 41.9383 64.3637C42.5687 64.4416 42.8221 63.4567 42.1851 63.3788C40.7711 63.2062 39.1669 63.0539 37.9496 63.9745C36.9391 64.7394 36.5288 66.0798 36.7223 67.3152C37.2225 70.5069 40.9011 71.3091 43.4491 70.2429C44.0428 69.9992 43.7626 69.021 43.1656 69.2715Z" fill="#727272"/>
<path d="M42.5462 63.4939C40.862 62.58 39.9815 59.2224 41.4589 57.7704C43.3999 55.8648 45.7845 58.5658 46.9585 60.028C47.3653 60.5323 48.0524 59.7978 47.6522 59.2969C46.118 57.3879 42.7996 54.467 40.5318 57.2187C38.8642 59.2461 39.8614 63.1893 42.0592 64.384C42.6262 64.6921 43.1165 63.8053 42.5462 63.4939Z" fill="#727272"/>
<path d="M44.153 70.9566C43.3626 71.7283 42.849 73.8167 44.0629 74.4496C45.517 75.2112 46.1607 72.6219 46.3541 71.6877C46.4408 71.2613 45.7938 71.0954 45.7071 71.5219C45.6204 71.945 45.5104 72.3613 45.3569 72.7674C45.2802 72.9671 45.1969 73.1668 45.0968 73.3564C44.9434 73.6508 44.8533 73.8404 44.4998 73.7998C43.546 73.6813 44.1997 71.8502 44.6366 71.4271C44.9434 71.1225 44.4631 70.6554 44.153 70.9566Z" fill="#727272"/>
<path d="M48.4514 71.0043C48.2813 71.9791 49.3685 72.744 50.1456 73.0926C50.9327 73.4446 52.0299 73.5631 52.7669 73.0114C53.4706 72.4834 53.3606 71.5255 53.0571 70.7944C52.6435 69.7993 51.7931 69.1292 50.8093 68.7772C50.4024 68.6316 50.2423 69.2916 50.6458 69.4338C51.2395 69.647 51.7731 70.0058 52.15 70.527C52.28 70.7098 52.3801 70.9027 52.4635 71.1126C52.6569 71.6068 52.6869 71.8301 52.3434 72.26C52.0499 72.6255 51.8965 72.7102 51.4496 72.7135C51.1695 72.7135 50.8793 72.656 50.6158 72.5612C50.2123 72.4157 48.995 71.7726 49.0984 71.1769C49.1717 70.7437 48.5281 70.5744 48.4514 71.0043Z" fill="#727272"/>
<path d="M52.3208 66.6248C53.1579 66.8381 53.9917 66.4725 54.6954 66.0224C55.209 65.694 55.886 65.095 55.8259 64.4011C55.7759 63.8223 55.209 63.5482 54.702 63.4872C53.8282 63.3789 52.9711 63.7614 52.2608 64.242C51.9039 64.4823 52.2508 65.0645 52.6076 64.8208C52.9778 64.567 53.3713 64.3436 53.8082 64.2319C54.2118 64.1269 55.3857 63.9577 55.0289 64.8073C54.7154 65.562 53.1946 66.1476 52.4842 65.9682C52.0673 65.8633 51.9039 66.5199 52.3208 66.6248Z" fill="#727272"/>
<path d="M49.2097 60.3059C49.1564 59.7914 49.2631 59.2803 49.63 58.9012C49.8968 58.6203 50.5438 58.248 50.924 58.4646C51.2608 58.6575 51.2375 59.4699 51.2375 59.8456C51.2341 60.3837 51.1207 60.8948 50.944 61.3991C50.8006 61.8087 51.4476 61.9711 51.591 61.565C51.8778 60.7459 51.9779 59.8862 51.8411 59.0231C51.7477 58.4308 51.6477 57.8418 50.9907 57.7538C49.5366 57.5541 48.406 58.9249 48.5494 60.3228C48.5861 60.7493 49.2531 60.7391 49.2097 60.3059Z" fill="#727272"/>
<path d="M43.016 62.5695C42.4991 61.9095 42.0555 60.7113 42.2289 59.8618C42.3323 59.3473 42.4524 59.1984 42.9793 59.1442C43.5063 59.0901 43.6363 59.2491 44.0165 59.5605C44.4034 59.8753 44.7803 60.2002 45.1638 60.5184C45.494 60.7925 45.9576 60.3085 45.624 60.031C44.6836 59.2458 43.1728 57.435 41.9755 58.8125C41.0483 59.8821 41.672 61.9399 42.4457 62.9249C42.7092 63.26 43.2828 62.9113 43.016 62.5695Z" fill="#727272"/>
<path d="M41.8182 65.2062C40.5175 64.6782 38.82 65.8527 39.0201 67.3352C39.2068 68.7398 41.438 69.2611 42.4419 68.469C42.7754 68.205 42.4319 67.6229 42.095 67.8903C41.5481 68.3235 40.1874 68.2084 39.7872 67.562C39.2002 66.6244 40.6309 65.4432 41.4981 65.7985C41.8883 65.9576 42.2151 65.3687 41.8182 65.2062Z" fill="#727272"/>
</g>
<defs>
<clipPath id="clip0_42096_14495">
<rect width="44" height="49" fill="white" transform="translate(24)"/>
</clipPath>
<clipPath id="clip1_42096_14495">
<rect width="83" height="40" fill="white" transform="translate(0 45)"/>
</clipPath>
</defs>
</svg>
